<?xml version="1.0" encoding="UTF-8"?>
<svg width="25px" height="25px" viewBox="0 0 25 25" version="1.1" xmlns="http://www.w3.org/2000/svg" xmlns:xlink="http://www.w3.org/1999/xlink">
    <!-- Generator: Sketch 42 (36781) - http://www.bohemiancoding.com/sketch -->
    <title>exit</title>
    <desc>Created with Sketch.</desc>
    <defs></defs>
    <g id="Page-1" stroke="none" stroke-width="1" fill="none" fill-rule="evenodd">
        <g id="Full-Color" transform="translate(-300.000000, -100.000000)">
            <g id="exit" transform="translate(300.000000, 100.000000)">
                <polygon id="Fill-107" fill="#7F2EFF" points="9.5 0.5031 0.5 2.5031 0.5 22.5031 9.5 24.5031"></polygon>
                <path d="M24.9614,12.3117 C25.0124,12.4347 25.0124,12.5717 24.9614,12.6947 C24.9364,12.7547 24.8994,12.8107 24.8534,12.8567 L21.8534,15.8567 C21.7554,15.9547 21.6284,16.0027 21.5004,16.0027 C21.3724,16.0027 21.2444,15.9547 21.1464,15.8567 C20.9514,15.6617 20.9514,15.3447 21.1464,15.1497 L23.2934,13.0027 L12.5004,13.0027 C12.2234,13.0027 12.0004,12.7797 12.0004,12.5027 C12.0004,12.2267 12.2234,12.0027 12.5004,12.0027 L23.2934,12.0027 L21.1464,9.8567 C20.9514,9.6617 20.9514,9.3447 21.1464,9.1497 C21.3414,8.9547 21.6584,8.9547 21.8534,9.1497 L24.8534,12.1497 C24.8994,12.1957 24.9364,12.2507 24.9614,12.3117 L24.9614,12.3117 Z M8.0004,11.5027 C8.0004,11.7797 7.7764,12.0027 7.5004,12.0027 C7.2234,12.0027 7.0004,11.7797 7.0004,11.5027 C7.0004,11.2267 7.2234,11.0027 7.5004,11.0027 C7.7764,11.0027 8.0004,11.2267 8.0004,11.5027 L8.0004,11.5027 Z M1.0004,2.9047 L9.0004,1.1257 L9.0004,2.5027 L9.0004,22.5027 L9.0004,23.8797 L1.0004,22.1017 L1.0004,2.9047 Z M0.3914,22.9917 L9.3914,24.9917 C9.4274,24.9997 9.4634,25.0027 9.5004,25.0027 C9.6124,25.0027 9.7234,24.9647 9.8134,24.8927 C9.9314,24.7977 10.0004,24.6547 10.0004,24.5027 L10.0004,23.0027 L18.5004,23.0027 C18.7764,23.0027 19.0004,22.7797 19.0004,22.5027 L19.0004,15.5027 C19.0004,15.2267 18.7764,15.0027 18.5004,15.0027 C18.2234,15.0027 18.0004,15.2267 18.0004,15.5027 L18.0004,22.0027 L10.0004,22.0027 L10.0004,3.0027 L18.0004,3.0027 L18.0004,9.5027 C18.0004,9.7797 18.2234,10.0027 18.5004,10.0027 C18.7764,10.0027 19.0004,9.7797 19.0004,9.5027 L19.0004,2.5027 C19.0004,2.2267 18.7764,2.0027 18.5004,2.0027 L10.0004,2.0027 L10.0004,0.5027 C10.0004,0.3517 9.9314,0.2077 9.8134,0.1137 C9.6944,0.0177 9.5384,-0.0163 9.3914,0.0147 L0.3914,2.0147 C0.1624,2.0657 0.0004,2.2687 0.0004,2.5027 L0.0004,22.5027 C0.0004,22.7377 0.1624,22.9407 0.3914,22.9917 L0.3914,22.9917 Z" id="Fill-188" fill="#000000"></path>
                <path d="M0.3916,22.9914 L9.3916,24.9914 C9.4276,24.9994 9.4636,25.0034 9.4996,25.0034 C9.6126,25.0034 9.7236,24.9654 9.8126,24.8924 C9.9316,24.7984 9.9996,24.6544 9.9996,24.5034 L9.9996,23.0034 L18.4996,23.0034 C18.7766,23.0034 18.9996,22.7794 18.9996,22.5034 L18.9996,20.5034 C18.9996,20.2264 18.7766,20.0034 18.4996,20.0034 L9.4996,20.0034 C9.2236,20.0034 8.9996,20.2264 8.9996,20.5034 L8.9996,21.8804 L0.6086,20.0144 C0.4586,19.9814 0.3046,20.0174 0.1876,20.1134 C0.0686,20.2084 -0.0004,20.3514 -0.0004,20.5034 L-0.0004,22.5034 C-0.0004,22.7374 0.1626,22.9404 0.3916,22.9914" id="Fill-325" fill="#000000" opacity="0.119999997"></path>
            </g>
        </g>
    </g>
</svg>